<svg width="38" height="38" viewBox="0 0 38 38" fill="none" xmlns="http://www.w3.org/2000/svg">
<path d="M19 38C29.4934 38 38 29.4934 38 19C38 8.50662 29.4934 0 19 0C8.50662 0 0 8.50662 0 19C0 29.4934 8.50662 38 19 38Z" fill="#039BE5"/>
<path d="M8.69368 18.5884L27.0129 11.5252C27.8632 11.218 28.6058 11.7326 28.3303 13.0183L28.3318 13.0167L25.2126 27.7116C24.9814 28.7534 24.3624 29.0068 23.4963 28.5159L18.7463 25.0152L16.4552 27.2223C16.2018 27.4757 15.9881 27.6894 15.4973 27.6894L15.8345 22.8555L24.6378 14.9024C25.0211 14.5652 24.5523 14.3752 24.0473 14.7108L13.1683 21.5603L8.47834 20.0973C7.4603 19.7743 7.43813 19.0793 8.69368 18.5884Z" fill="white"/>
</svg>
