<svg width="38" height="38" viewBox="0 0 38 38" fill="none" xmlns="http://www.w3.org/2000/svg">
<path d="M19 0.791748C8.5025 0.791748 0 9.15175 0 19.4624C0 27.7132 5.4435 34.7099 12.9912 37.1767C13.9412 37.3525 14.2895 36.7746 14.2895 36.279C14.2895 35.8357 14.2738 34.6609 14.2658 33.1044C8.98067 34.2302 7.866 30.5996 7.866 30.5996C7.0015 28.4447 5.75225 27.8684 5.75225 27.8684C4.03117 26.7109 5.88525 26.7347 5.88525 26.7347C7.79317 26.8645 8.79542 28.6584 8.79542 28.6584C10.4896 31.5132 13.243 30.6882 14.3292 30.2117C14.5002 29.0036 14.9895 28.1819 15.5325 27.7147C11.313 27.2477 6.878 25.6422 6.878 18.4887C6.878 16.4509 7.61425 14.7852 8.83342 13.479C8.61967 13.0072 7.97842 11.1087 8.99967 8.53741C8.99967 8.53741 10.591 8.03708 14.2247 10.4517C15.7447 10.0369 17.3597 9.83104 18.9747 9.82154C20.5897 9.83104 22.2047 10.0369 23.7247 10.4517C27.3347 8.03708 28.9259 8.53741 28.9259 8.53741C29.9472 11.1087 29.306 13.0072 29.1159 13.479C30.3272 14.7852 31.0634 16.4509 31.0634 18.4887C31.0634 25.6612 26.6222 27.2397 22.3947 27.6989C23.0597 28.2594 23.6772 29.4042 23.6772 31.1537C23.6772 33.6522 23.6534 35.6599 23.6534 36.2664C23.6534 36.7556 23.9859 37.3399 24.9597 37.153C32.5613 34.702 38 27.7005 38 19.4624C38 9.15175 29.4927 0.791748 19 0.791748Z" fill="#212121"/>
</svg>
