<svg width="38" height="38" viewBox="0 0 38 38" fill="none" xmlns="http://www.w3.org/2000/svg">
<path d="M19.0003 0C10.1238 0 2.90216 7.22148 2.90216 16.0979C2.90216 21.1535 7.37142 27.1691 10.0354 30.3049C11.7315 32.3011 17.0192 38.0002 19.0003 38.0002C21.3956 38.0002 27.9221 30.3808 27.9871 30.3038C30.6427 27.1716 35.0979 21.161 35.0979 16.0979C35.0981 7.22148 27.8766 0 19.0003 0ZM29.1793 15.9791C29.1793 21.5577 24.6405 26.0964 19.0617 26.0964C13.4831 26.0964 8.94439 21.5579 8.94439 15.9791C8.94439 10.4004 13.4829 5.86153 19.0617 5.86153C24.6404 5.86171 29.1793 10.4004 29.1793 15.9791Z" fill="#621280"/>
<path d="M22.7231 9.06616C22.2944 9.06616 21.9026 9.23087 21.5887 9.54343L19.839 11.2923C19.2254 11.9092 19.1194 13.0449 20.266 14.1913L20.7452 14.6708C20.4474 15.0245 19.9358 15.5336 19.6227 15.8449L19.4189 16.048C19.3036 16.1633 19.1822 16.2871 19.0579 16.4137C18.7928 16.6841 18.3633 17.122 18.0545 17.3878L17.5623 16.8954C16.8674 16.2003 16.343 15.9037 15.8092 15.9037C15.228 15.9037 14.8735 16.2586 14.6615 16.4707L13.0141 18.118C12.7138 18.4175 12.5482 18.8164 12.5479 19.241C12.5475 19.83 12.847 20.4285 13.4386 21.0203C13.9056 21.4871 14.53 21.9298 14.9657 22.1004C15.2856 22.2216 15.5922 22.2972 15.8932 22.3302C16.0545 22.3496 16.2158 22.3596 16.3727 22.3596C18.2144 22.3596 19.5001 21.0518 21.2792 19.2414C21.5342 18.9819 21.8032 18.7082 22.0892 18.4221C27.1254 13.3857 25.2007 10.6771 24.4906 9.96672C23.8929 9.36927 23.2982 9.06616 22.7231 9.06616Z" fill="#621280"/>
</svg>
