<svg width="38" height="38" viewBox="0 0 38 38" fill="none" xmlns="http://www.w3.org/2000/svg">
<path d="M13.0666 20.9296L23.1693 14.8437L16.0378 22.2656L22.2929 27.1788C23.4133 27.6716 23.8212 26.6451 23.8212 26.6451L26.6861 12.0976C26.6861 12.0976 26.7348 11.7265 26.7128 11.6523C26.5085 10.9588 25.3899 11.4593 25.3905 11.4599L9.02855 17.9241C9.02855 17.9241 8.2543 18.1906 8.31545 18.6829C8.37661 19.1757 9.00836 19.4007 9.00836 19.4007L13.0678 20.9296" fill="url(#paint0_linear_51_46)"/>
<path d="M27.2822 11.485C27.1457 11.0195 26.7722 10.7315 26.2568 10.6953C26.1529 10.6876 25.5687 10.7113 25.1744 10.912L25.1726 10.9079L8.83561 17.3631C8.31014 17.5436 7.73064 17.9705 7.71876 18.6023C7.71757 18.6522 7.72054 18.7038 7.72707 18.7567C7.82979 19.5879 8.70914 19.9252 8.79998 19.9566L12.5863 21.3828C12.8773 22.318 13.8379 25.4049 14.0446 26.0651C14.1835 26.5069 14.4127 27.0799 14.8325 27.2366C14.9536 27.2865 15.0824 27.3126 15.2166 27.3126C15.5812 27.3126 15.8187 27.1274 15.9072 27.0472L18.2246 24.7375L21.9266 27.6451C21.9652 27.676 22.0085 27.7021 22.0543 27.7217C22.3612 27.8571 22.6338 27.9058 22.8659 27.9058C23.1088 27.9058 23.3083 27.8529 23.4585 27.7912C24.092 27.5311 24.3455 26.932 24.3729 26.8643C24.3859 26.8305 24.3966 26.7954 24.4037 26.7598L27.2745 12.1749C27.3404 11.6786 27.3048 11.5616 27.2822 11.485ZM13.772 21.1976L19.6335 17.6665L15.6109 21.8543C15.5396 21.9279 15.4993 22.0199 15.4749 22.1167C15.4731 22.1238 14.8776 24.747 14.8776 24.747L13.772 21.1976ZM26.103 11.9867L23.2536 26.4564C23.2198 26.5146 23.1349 26.6411 23.0084 26.6927C22.9021 26.7361 22.7638 26.7254 22.5964 26.6613L16.9207 22.204L23.5974 15.2547C23.804 15.0404 23.8195 14.7055 23.6336 14.4733C23.4484 14.2412 23.1189 14.1818 22.8635 14.3356L13.0067 20.2731L9.21323 18.8445C9.09686 18.8 8.97692 18.7133 8.92764 18.6528C8.99236 18.5958 9.12298 18.5215 9.24648 18.477L25.609 12.0117C25.6191 12.0081 25.6286 12.0033 25.6387 11.9992C25.7878 11.9339 25.989 11.8852 26.1155 11.8775C26.1096 11.9368 26.103 11.9861 26.103 11.9867Z" fill="url(#paint1_linear_51_46)"/>
<path d="M19 34.4375C10.4874 34.4375 3.5625 27.512 3.5625 19C3.5625 10.488 10.4874 3.5625 19 3.5625C27.5126 3.5625 34.4375 10.488 34.4375 19C34.4375 27.512 27.5126 34.4375 19 34.4375ZM19 4.75C11.1429 4.75 4.75 11.1429 4.75 19C4.75 26.8571 11.1429 33.25 19 33.25C26.8571 33.25 33.25 26.8571 33.25 19C33.25 11.1429 26.8571 4.75 19 4.75Z" fill="url(#paint2_linear_51_46)"/>
<defs>
<linearGradient id="paint0_linear_51_46" x1="17.5156" y1="11.2847" x2="17.5156" y2="27.3124" gradientUnits="userSpaceOnUse">
<stop stop-color="#6DC7FF"/>
<stop offset="1" stop-color="#E6ABFF"/>
</linearGradient>
<linearGradient id="paint1_linear_51_46" x1="17.5156" y1="3.46344" x2="17.5156" y2="34.5932" gradientUnits="userSpaceOnUse">
<stop stop-color="#1A6DFF"/>
<stop offset="1" stop-color="#C822FF"/>
</linearGradient>
<linearGradient id="paint2_linear_51_46" x1="19" y1="3.46334" x2="19" y2="34.5931" gradientUnits="userSpaceOnUse">
<stop stop-color="#1A6DFF"/>
<stop offset="1" stop-color="#C822FF"/>
</linearGradient>
</defs>
</svg>
