<svg width="38" height="38" viewBox="0 0 38 38" fill="none" xmlns="http://www.w3.org/2000/svg">
<path d="M19 34.4375C10.488 34.4375 3.5625 27.512 3.5625 19C3.5625 10.488 10.488 3.5625 19 3.5625C27.512 3.5625 34.4375 10.488 34.4375 19C34.4375 27.512 27.512 34.4375 19 34.4375ZM19 4.75C11.1421 4.75 4.75 11.1421 4.75 19C4.75 26.8579 11.1421 33.25 19 33.25C26.8579 33.25 33.25 26.8579 33.25 19C33.25 11.1421 26.8579 4.75 19 4.75Z" fill="url(#paint0_linear_51_42)"/>
<path d="M24.3298 19.5381C24.3298 19.5381 26.6886 16.0823 26.9229 14.9875C27.0017 14.5979 26.8301 14.25 26.4242 14.25C26.4242 14.25 25.0627 14.25 24.3762 14.25C23.9077 14.25 23.7361 14.5817 23.5946 14.8785C23.5946 14.8785 22.4883 17.2999 21.1407 18.7866C20.7094 19.2667 20.598 19.443 20.3591 19.443C20.1666 19.443 20.1875 19.3154 20.1875 18.8817V15.085C20.1875 14.5538 19.9069 14.25 19.4685 14.25H16.189C15.9385 14.25 15.8202 14.468 15.8202 14.6675C15.8202 15.1685 16.6273 15.354 16.6273 16.7085V19.5056C16.6273 20.0692 16.5554 20.2872 16.291 20.2872C15.5883 20.2872 13.8951 17.7916 12.9581 15.0409C12.7679 14.4796 12.5453 14.25 12.0142 14.25H9.96851C9.67163 14.25 9.45129 14.526 9.45129 14.8229C9.45129 15.3702 10.0914 17.9401 12.6079 21.3309C14.2964 23.6132 16.5925 24.8656 18.5941 24.8656C19.8118 24.8656 20.1875 24.6801 20.1875 24.1652V22.4141C20.1875 21.9757 20.2803 21.7878 20.5308 21.7878C20.8137 21.7878 21.2706 21.9061 22.4303 23.0496C23.8057 24.3623 23.8613 24.9375 24.6105 24.9375H26.9089C27.1432 24.9375 27.3612 24.8007 27.3612 24.411C27.3612 23.8938 26.6886 22.9591 25.6588 21.8644C25.2367 21.3031 24.5479 20.6862 24.3298 20.4055C24.0167 20.0762 24.1095 19.8813 24.3298 19.5381Z" fill="url(#paint1_linear_51_42)"/>
<defs>
<linearGradient id="paint0_linear_51_42" x1="19" y1="3.26562" x2="19" y2="35.1803" gradientUnits="userSpaceOnUse">
<stop stop-color="#1A6DFF"/>
<stop offset="1" stop-color="#C822FF"/>
</linearGradient>
<linearGradient id="paint1_linear_51_42" x1="18.4062" y1="13.854" x2="18.4062" y2="25.897" gradientUnits="userSpaceOnUse">
<stop stop-color="#8AB4FF"/>
<stop offset="1" stop-color="#E492FF"/>
</linearGradient>
</defs>
</svg>
