<svg width="38" height="38" viewBox="0 0 38 38" fill="none" xmlns="http://www.w3.org/2000/svg">
<path d="M19 38C29.4934 38 38 29.4934 38 19C38 8.50662 29.4934 0 19 0C8.50662 0 0 8.50662 0 19C0 29.4934 8.50662 38 19 38Z" fill="#4D76A1"/>
<path fill-rule="evenodd" clip-rule="evenodd" d="M18.2822 27.3333H19.7734C19.7734 27.3333 20.2239 27.2839 20.4539 27.0359C20.6656 26.8083 20.6588 26.3809 20.6588 26.3809C20.6588 26.3809 20.6296 24.3799 21.5583 24.0852C22.4738 23.795 23.6494 26.0192 24.8955 26.8743C25.8378 27.5216 26.5537 27.3797 26.5537 27.3797L29.8855 27.3333C29.8855 27.3333 31.6284 27.2259 30.802 25.8555C30.7342 25.7434 30.3207 24.8419 28.3248 22.9892C26.2357 21.0502 26.5155 21.3639 29.032 18.0097C30.5646 15.9671 31.1772 14.72 30.9859 14.1859C30.8033 13.6772 29.6762 13.8117 29.6762 13.8117L25.9248 13.835C25.9248 13.835 25.6467 13.7971 25.4404 13.9204C25.2389 14.0413 25.1092 14.3231 25.1092 14.3231C25.1092 14.3231 24.5155 15.9037 23.7236 17.2481C22.0532 20.0846 21.3853 20.2343 21.1123 20.0582C20.4772 19.6477 20.6357 18.409 20.6357 17.5292C20.6357 14.7803 21.0527 13.6342 19.8239 13.3375C19.4162 13.2389 19.116 13.1739 18.0732 13.1634C16.7347 13.1495 15.6017 13.1674 14.9603 13.4818C14.5336 13.6907 14.2043 14.1564 14.4048 14.1832C14.6528 14.2164 15.2143 14.3346 15.512 14.74C15.8964 15.263 15.8829 16.4376 15.8829 16.4376C15.8829 16.4376 16.1037 19.6734 15.367 20.0754C14.8614 20.3512 14.1677 19.7882 12.6785 17.2148C11.9154 15.8966 11.3393 14.4396 11.3393 14.4396C11.3393 14.4396 11.2282 14.1673 11.0301 14.0216C10.7896 13.8452 10.4536 13.789 10.4536 13.789L6.88889 13.8123C6.88889 13.8123 6.35375 13.8272 6.15731 14.0599C5.98255 14.2669 6.14342 14.6949 6.14342 14.6949C6.14342 14.6949 8.93425 21.2243 12.0943 24.5147C14.9918 27.5314 18.2822 27.3333 18.2822 27.3333Z" fill="white"/>
</svg>
