<svg width="38" height="38" viewBox="0 0 38 38" fill="none" xmlns="http://www.w3.org/2000/svg">
<path fill-rule="evenodd" clip-rule="evenodd" d="M35.0312 12.4688H35.9219C37.2091 12.4688 38.2327 11.2824 37.9537 9.94947C37.7506 8.97869 36.8457 8.3125 35.8536 8.3125H31.4687C30.8127 8.3125 30.2812 7.78109 30.2812 7.125C30.2812 6.46891 30.8127 5.9375 31.4687 5.9375H33.4786C34.4702 5.9375 35.3756 5.27131 35.5787 4.30053C35.8577 2.96756 34.8341 1.78125 33.5469 1.78125H20.1911H19.2969H5.04687C3.9039 1.78125 2.96875 2.71641 2.96875 3.85938C2.96875 5.00234 3.9039 5.9375 5.04687 5.9375H5.9375C6.59359 5.9375 7.125 6.46891 7.125 7.125C7.125 7.78109 6.59359 8.3125 5.9375 8.3125H2.74015C1.74859 8.3125 0.843121 8.97869 0.640059 9.94947C0.360996 11.2824 1.38462 12.4688 2.67187 12.4688H10.6875V19.5938H2.74015C1.74859 19.5938 0.843121 20.2599 0.640059 21.2307C0.360996 22.5637 1.38462 23.75 2.67187 23.75H2.96875C3.62484 23.75 4.15625 24.2814 4.15625 24.9375C4.15625 25.5936 3.62484 26.125 2.96875 26.125H2.67187C1.38462 26.125 0.360996 27.3113 0.640059 28.6443C0.843121 29.6151 1.74859 30.2812 2.74015 30.2812H5.9375C6.59359 30.2812 7.125 30.8127 7.125 31.4688C7.125 32.1248 6.59359 32.6562 5.9375 32.6562H5.11515C4.12359 32.6562 3.21812 33.3224 3.01506 34.2932C2.736 35.6262 3.75962 36.8125 5.04687 36.8125H18.4027H19.2969H32.9531C34.0961 36.8125 35.0312 35.8773 35.0312 34.7344C35.0312 33.5914 34.0961 32.6562 32.9531 32.6562H32.6562C32.0002 32.6562 31.4687 32.1248 31.4687 31.4688C31.4687 30.8127 32.0002 30.2812 32.6562 30.2812H35.2598C36.2514 30.2812 37.1569 29.6151 37.3599 28.6443C37.639 27.3113 36.6154 26.125 35.3281 26.125H27.9062V19H35.2598C36.2514 19 37.1569 18.3338 37.3599 17.363C37.639 16.0301 36.6154 14.8438 35.3281 14.8438H35.0312C34.3752 14.8438 33.8437 14.3123 33.8437 13.6562C33.8437 13.0002 34.3752 12.4688 35.0312 12.4688Z" fill="url(#paint0_radial_50_35)"/>
<path fill-rule="evenodd" clip-rule="evenodd" d="M17.781 4.20499C10.529 4.7839 4.68468 10.7066 4.19128 17.9646C4.00781 20.6673 4.54931 23.2281 5.64003 25.4737L3.64206 33.066C3.34103 34.2096 4.38425 35.2528 5.52781 34.9517L13.6016 32.8267C15.7747 33.6758 18.1931 34.0344 20.726 33.7446C27.7329 32.9437 33.2803 27.1635 33.801 20.13C34.4773 11.0141 26.9076 3.47646 17.781 4.20499Z" fill="white"/>
<path fill-rule="evenodd" clip-rule="evenodd" d="M8.04887 25.653C8.1213 25.3787 8.0928 25.0877 7.96871 24.8324L7.77693 24.437C6.83287 22.493 6.41249 20.3104 6.56152 18.126C6.97596 12.0258 11.8809 7.0585 17.9704 6.57281C18.313 6.54491 18.6592 6.53125 19 6.53125C22.4538 6.53125 25.7854 7.98416 28.1384 10.5183C30.5241 13.0868 31.6938 16.438 31.4337 19.9553C31.0003 25.8062 26.2811 30.7194 20.4576 31.3856C19.9726 31.4408 19.4821 31.4688 19 31.4688C17.442 31.4688 15.9172 31.1814 14.4667 30.6149L14.1063 30.4742C13.8724 30.3828 13.6153 30.3679 13.3718 30.4321L7.2859 32.0334C6.84593 32.1492 6.44515 31.7478 6.56034 31.3078L8.04887 25.653Z" fill="url(#paint1_linear_50_35)"/>
<path fill-rule="evenodd" clip-rule="evenodd" d="M15.2065 12.537C14.9221 11.9077 14.6229 11.8946 14.3515 11.8833C14.1301 11.8744 13.8771 11.875 13.6242 11.875C13.3712 11.875 12.9598 11.97 12.6112 12.3482C12.2627 12.7264 11.2812 13.6408 11.2812 15.501C11.2812 17.3613 12.6421 19.1585 12.8321 19.4103C13.0221 19.662 15.4601 23.601 19.3206 25.1168C22.5287 26.3762 23.1818 26.1256 23.8788 26.0627C24.5753 25.9997 26.1262 25.1489 26.4427 24.266C26.7591 23.3831 26.7591 22.6266 26.6647 22.4693C26.5697 22.3114 26.3162 22.2175 25.9368 22.0275C25.7616 21.9403 24.792 21.4641 23.7298 20.9511C23.2394 20.7142 22.6504 20.8406 22.3018 21.2592C22.1582 21.4314 21.8815 21.7627 21.5721 22.1314C21.2206 22.5506 20.6298 22.6759 20.1382 22.436C19.3842 22.0679 18.2733 21.4569 17.4064 20.6874C16.7853 20.1364 16.0687 19.1639 15.6014 18.484C15.2873 18.0269 15.3271 17.4153 15.7017 17.0062C15.8674 16.8251 16.0348 16.6422 16.1559 16.5009C16.4451 16.1631 16.5223 15.6934 16.3543 15.2814C16.0099 14.4406 15.4363 13.0453 15.2065 12.537Z" fill="white"/>
<path fill-rule="evenodd" clip-rule="evenodd" d="M31.4153 17.8124H26.125C25.4659 17.8124 24.9375 17.2839 24.9375 16.6189V16.5893C24.9375 15.9539 25.4541 15.4374 26.0894 15.4374H26.4219C26.9147 15.4374 27.3125 15.0396 27.3125 14.5468C27.3125 14.0539 26.9147 13.6561 26.4219 13.6561H21.6719C21.2622 13.6561 20.8881 13.4899 20.6209 13.2227C20.3537 12.9555 20.1875 12.5814 20.1875 12.1718C20.1875 11.3524 20.8525 10.6874 21.6719 10.6874H22.2656C22.7584 10.6874 23.1562 10.2896 23.1562 9.79676C23.1562 9.30395 22.7584 8.90613 22.2656 8.90613H21.6719C21.2622 8.90613 20.8881 8.73988 20.6209 8.4727C20.3537 8.20551 20.1875 7.83145 20.1875 7.42176C20.1875 7.12488 20.2766 6.84582 20.425 6.61426C23.3581 6.9527 26.1131 8.33613 28.1378 10.5152C30.0319 12.5577 31.16 15.093 31.4153 17.8124Z" fill="url(#paint2_linear_50_35)"/>
<path fill-rule="evenodd" clip-rule="evenodd" d="M17.8113 29.9262C17.8339 30.5265 17.502 31.0508 17.005 31.3084C16.1381 31.1719 15.295 30.9344 14.4697 30.6138L14.1075 30.4713C13.87 30.3822 13.6147 30.3703 13.3713 30.4297L7.28472 32.0346C6.84475 32.1504 6.44338 31.749 6.55916 31.309L8.05125 25.65C8.1225 25.3769 8.09281 25.0859 7.96813 24.8306L7.77813 24.4388C7.22 23.2869 6.84594 22.0519 6.66188 20.7812H10.9844C11.4772 20.7812 11.875 21.1791 11.875 21.6719C11.875 22.1647 11.4772 22.5625 10.9844 22.5625C10.4916 22.5625 10.0938 22.9603 10.0938 23.4531C10.0938 23.9459 10.4916 24.3438 10.9844 24.3438H13.6563C14.3723 24.3438 14.9405 24.9743 14.8271 25.7189C14.7375 26.3079 14.1865 26.7188 13.5909 26.7188H12.7656C12.2728 26.7188 11.875 27.1166 11.875 27.6094C11.875 28.1022 12.2728 28.5 12.7656 28.5H16.2432C17.0555 28.5 17.7804 29.1145 17.8113 29.9262Z" fill="url(#paint3_linear_50_35)"/>
<defs>
<radialGradient id="paint0_radial_50_35" cx="0" cy="0" r="1" gradientUnits="userSpaceOnUse" gradientTransform="translate(19.2969 19.2969) scale(18.1189 18.1189)">
<stop stop-color="#EED7A2"/>
<stop offset="0.106" stop-color="#F1DCAB"/>
<stop offset="0.437" stop-color="#F8E8C3"/>
<stop offset="0.744" stop-color="#FCEFD2"/>
<stop offset="1" stop-color="#FEF2D7"/>
</radialGradient>
<linearGradient id="paint1_linear_50_35" x1="19.0006" y1="6.53125" x2="19.0006" y2="32.053" gradientUnits="userSpaceOnUse">
<stop stop-color="#00D772"/>
<stop offset="0.996" stop-color="#00B26E"/>
<stop offset="1" stop-color="#00B26E"/>
</linearGradient>
<linearGradient id="paint2_linear_50_35" x1="25.8014" y1="6.61426" x2="25.8014" y2="23.2974" gradientUnits="userSpaceOnUse">
<stop stop-color="#00E67A"/>
<stop offset="0.996" stop-color="#00C177"/>
<stop offset="1" stop-color="#00C177"/>
</linearGradient>
<linearGradient id="paint3_linear_50_35" x1="5.13356" y1="24.9797" x2="24.9078" y2="32.1765" gradientUnits="userSpaceOnUse">
<stop stop-color="#00C267"/>
<stop offset="0.996" stop-color="#009D61"/>
<stop offset="1" stop-color="#009D61"/>
</linearGradient>
</defs>
</svg>
