<svg width="38" height="38" viewBox="0 0 38 38" fill="none" xmlns="http://www.w3.org/2000/svg">
<path d="M18.9898 0.0100189C8.50258 0.0122441 0.00283345 8.51566 0.00505869 19.0029C0.00580045 22.6342 1.04788 26.1892 3.00758 29.2464L0.0532723 36.9116C-0.104053 37.3193 0.0988903 37.7772 0.506555 37.9346C0.597716 37.9698 0.694514 37.9877 0.792205 37.9876C0.882843 37.9881 0.972816 37.9725 1.05805 37.9417L8.97006 35.1172C17.872 40.6614 29.5828 37.9394 35.127 29.0374C40.6711 20.1354 37.9491 8.42461 29.0472 2.88051C26.0296 1.00107 22.5449 0.00653267 18.9898 0.0100189Z" fill="#55CD6C"/>
<path d="M28.0424 22.2443C28.0424 22.2443 26.104 21.2948 24.8903 20.6619C23.5168 19.9546 21.9027 21.279 21.1432 22.0323C19.9611 21.5782 18.8814 20.8928 17.9674 20.0163C17.0907 19.1023 16.4053 18.0226 15.9514 16.8404C16.7046 16.0793 18.0259 14.4668 17.3217 13.0933C16.6966 11.878 15.7394 9.94116 15.7394 9.93957C15.605 9.67302 15.3321 9.50471 15.0336 9.50439H13.4512C11.1467 9.90244 9.47118 11.9132 9.49525 14.2516C9.49525 16.736 12.4685 21.5085 14.4735 23.5149C16.4784 25.5214 21.2509 28.4932 23.7368 28.4932C26.0752 28.5172 28.086 26.8416 28.484 24.5372V22.9548C28.4842 22.6531 28.313 22.3775 28.0424 22.2443Z" fill="#FAFAFA"/>
</svg>
