<?xml version="1.0" standalone="no"?>
<!DOCTYPE svg PUBLIC "-//W3C//DTD SVG 20010904//EN"
 "http://www.w3.org/TR/2001/REC-SVG-20010904/DTD/svg10.dtd">
<svg version="1.0" xmlns="http://www.w3.org/2000/svg"
 width="100.000000pt" height="100.000000pt" viewBox="0 0 100.000000 100.000000"
 preserveAspectRatio="xMidYMid meet">
<metadata>
Created by potrace 1.14, written by Peter Selinger 2001-2017
</metadata>
<g transform="translate(0.000000,100.000000) scale(0.100000,-0.100000)"
fill="#000000" stroke="none">
<path d="M376 802 c-7 -11 -96 -543 -96 -571 0 -19 6 -21 59 -21 33 0 63 4 66
10 3 5 13 49 21 97 25 149 7 133 139 133 62 0 116 4 119 8 3 5 8 32 12 60 l7
52 -118 0 -117 0 7 53 c4 28 9 55 12 60 2 4 62 7 133 7 l129 0 5 33 c3 17 7
43 8 57 l3 25 -192 3 c-105 1 -194 -1 -197 -6z"/>
</g>
</svg>
