<svg width="37" height="55" viewBox="0 0 37 55" fill="none" xmlns="http://www.w3.org/2000/svg">
<g filter="url(#filter0_d_1_2)">
<path d="M4.85511 47V0.454544H32.7642V5.45454H10.4915V21.1818H30.6733V26.1818H10.4915V47H4.85511Z" fill="#0E0E0A"/>
<path d="M4.85511 47H3.85511V48H4.85511V47ZM4.85511 0.454544V-0.545456H3.85511V0.454544H4.85511ZM32.7642 0.454544H33.7642V-0.545456H32.7642V0.454544ZM32.7642 5.45454V6.45454H33.7642V5.45454H32.7642ZM10.4915 5.45454V4.45454H9.49148V5.45454H10.4915ZM10.4915 21.1818H9.49148V22.1818H10.4915V21.1818ZM30.6733 21.1818H31.6733V20.1818H30.6733V21.1818ZM30.6733 26.1818V27.1818H31.6733V26.1818H30.6733ZM10.4915 26.1818V25.1818H9.49148V26.1818H10.4915ZM10.4915 47V48H11.4915V47H10.4915ZM5.85511 47V0.454544H3.85511V47H5.85511ZM4.85511 1.45454H32.7642V-0.545456H4.85511V1.45454ZM31.7642 0.454544V5.45454H33.7642V0.454544H31.7642ZM32.7642 4.45454H10.4915V6.45454H32.7642V4.45454ZM9.49148 5.45454V21.1818H11.4915V5.45454H9.49148ZM10.4915 22.1818H30.6733V20.1818H10.4915V22.1818ZM29.6733 21.1818V26.1818H31.6733V21.1818H29.6733ZM30.6733 25.1818H10.4915V27.1818H30.6733V25.1818ZM9.49148 26.1818V47H11.4915V26.1818H9.49148ZM10.4915 46H4.85511V48H10.4915V46Z" fill="black"/>
</g>
<defs>
<filter id="filter0_d_1_2" x="0.855118" y="0.454544" width="35.9091" height="54.5455" filterUnits="userSpaceOnUse" color-interpolation-filters="sRGB">
<feFlood flood-opacity="0" result="BackgroundImageFix"/>
<feColorMatrix in="SourceAlpha" type="matrix" values="0 0 0 0 0 0 0 0 0 0 0 0 0 0 0 0 0 0 127 0" result="hardAlpha"/>
<feOffset dy="4"/>
<feGaussianBlur stdDeviation="2"/>
<feComposite in2="hardAlpha" operator="out"/>
<feColorMatrix type="matrix" values="0 0 0 0 0 0 0 0 0 0 0 0 0 0 0 0 0 0 0.25 0"/>
<feBlend mode="normal" in2="BackgroundImageFix" result="effect1_dropShadow_1_2"/>
<feBlend mode="normal" in="SourceGraphic" in2="effect1_dropShadow_1_2" result="shape"/>
</filter>
</defs>
</svg>
